<svg xmlns="http://www.w3.org/2000/svg" viewBox="0 0 112.43 112.43"><title>calendario_dia_3_1</title><g style="isolation:isolate"><path d="M112.43,56.22A56.22,56.22,0,1,1,56.22,0,56.22,56.22,0,0,1,112.43,56.22Z" style="fill:#f5f8ff"/><path d="M88.56,92.56l.07-67.41A4.63,4.63,0,0,0,84,20.54l-55.42-.08a4.64,4.64,0,0,0-4.67,4.6l-.07,67.5Z" style="fill:#fff"/><path d="M88.58,41.53l0-16.38A4.63,4.63,0,0,0,84,20.54l-55.43-.08a4.62,4.62,0,0,0-4.66,4.6l0,16.38Z" style="fill:#9cf"/><rect x="53.53" y="6.42" width="5.37" height="64.75" transform="translate(17.34 94.96) rotate(-89.92)" style="fill:#0e2443;mix-blend-mode:multiply"/><path d="M59.8,28.67a3.58,3.58,0,1,1-3.58-3.59A3.58,3.58,0,0,1,59.8,28.67Z" style="fill:#cfe1ff"/><path d="M59.27,32.65a5,5,0,0,1-3.06,1,5,5,0,0,1-3.05-9,5,5,0,0,1,6.11,8ZM54.91,27a2.14,2.14,0,0,0-.84,1.7,2.15,2.15,0,0,0,2.14,2.15,2.18,2.18,0,0,0,2.15-2.14,2.09,2.09,0,0,0-.62-1.52A2.16,2.16,0,0,0,54.91,27Z" style="fill:#fff"/><path d="M59.8,28.69a3.59,3.59,0,1,1-3.58-3.59A3.58,3.58,0,0,1,59.8,28.69Z" style="fill:#cfe1ff"/><path d="M59.27,32.67a4.89,4.89,0,0,1-3.06,1,5,5,0,0,1-5-5,5,5,0,0,1,5-5,5,5,0,0,1,3.05,9ZM54.91,27a2.15,2.15,0,0,0,1.3,3.86,2.21,2.21,0,0,0,2.16-2.15A2.16,2.16,0,0,0,54.91,27Z" style="fill:#fff"/><path d="M59.8,28.72a3.58,3.58,0,1,1-3.58-3.59A3.58,3.58,0,0,1,59.8,28.72Z" style="fill:#cfe1ff"/><path d="M59.27,32.69a5,5,0,0,1-3.06,1,5,5,0,0,1-5-5,5,5,0,0,1,5-5,5,5,0,0,1,3.05,9ZM54.91,27a2.15,2.15,0,0,0-.84,1.71,2.09,2.09,0,0,0,.63,1.51,2.14,2.14,0,0,0,1.51.64,2.2,2.2,0,0,0,2.16-2.15,2.16,2.16,0,0,0-2.15-2.15A2.2,2.2,0,0,0,54.91,27Z" style="fill:#fff"/><path d="M58.65,27a2.43,2.43,0,0,1-2.44,2.43h0A2.43,2.43,0,0,1,53.78,27V20.09a2.45,2.45,0,0,1,2.44-2.43h0a2.44,2.44,0,0,1,2.44,2.44Z" style="fill:#80b1ff"/><path d="M58.65,27.05a2.43,2.43,0,0,1-2.44,2.43h0A2.43,2.43,0,0,1,53.78,27V20.12a2.43,2.43,0,0,1,2.43-2.44h0a2.44,2.44,0,0,1,2.44,2.44Z" style="fill:#80b1ff"/><path d="M58.65,27.07a2.43,2.43,0,0,1-2.44,2.43h0a2.43,2.43,0,0,1-2.43-2.43V20.14a2.43,2.43,0,0,1,2.43-2.44h0a2.45,2.45,0,0,1,2.44,2.44Z" style="fill:#80b1ff"/><path d="M32.47,52.82q2.94-4.6,9.77-4.61T52,52.82Q55,57.44,55,65.58T52,78.43q-3,4.65-9.77,4.66t-9.77-4.66q-2.94-4.67-2.94-12.85T32.47,52.82ZM48,59.72a7.88,7.88,0,0,0-1.78-3.89,5.07,5.07,0,0,0-4-1.5,5.07,5.07,0,0,0-4,1.5,8,8,0,0,0-1.79,3.89A32.26,32.26,0,0,0,36,65.58a36,36,0,0,0,.42,6,7.48,7.48,0,0,0,1.79,3.9,5.16,5.16,0,0,0,4,1.49,5.16,5.16,0,0,0,4-1.49A7.48,7.48,0,0,0,48,71.58a36,36,0,0,0,.42-6A32.16,32.16,0,0,0,48,59.72Z" style="fill:#0e2443"/><path d="M63.35,50.63a12.27,12.27,0,0,1,8.12-2.56,13.23,13.23,0,0,1,5.88,1.2,8.42,8.42,0,0,1,4.94,7.88,8.11,8.11,0,0,1-1.53,5,7.45,7.45,0,0,1-3.65,2.76v.19a7.9,7.9,0,0,1,4.26,3,9.38,9.38,0,0,1,1.53,5.55,9.85,9.85,0,0,1-1.29,5,8.8,8.8,0,0,1-3.81,3.46,13.55,13.55,0,0,1-6,1.24,13.39,13.39,0,0,1-8.66-2.68c-2.23-1.79-3.41-4.42-3.53-7.91H66a5.13,5.13,0,0,0,1.58,3.7,5.72,5.72,0,0,0,4.07,1.39,4.9,4.9,0,0,0,3.69-1.34,4.81,4.81,0,0,0,1.3-3.46,4.56,4.56,0,0,0-1.79-4c-1.19-.82-3-1.22-5.56-1.22H67.89V62.42h1.36q6.69,0,6.69-4.47a4.11,4.11,0,0,0-1.2-3.15,4.89,4.89,0,0,0-3.46-1.13,4.6,4.6,0,0,0-3.41,1.2,4.82,4.82,0,0,0-1.39,3H60A9.6,9.6,0,0,1,63.35,50.63Z" style="fill:#0e2443"/></g></svg>