<svg xmlns="http://www.w3.org/2000/svg" viewBox="0 0 112.43 112.43"><title>calendario_dia_25_1</title><g style="isolation:isolate"><path d="M112.43,56.22A56.22,56.22,0,1,1,56.22,0,56.22,56.22,0,0,1,112.43,56.22Z" style="fill:#f5f8ff"/><path d="M88.56,92.56l.07-67.41A4.63,4.63,0,0,0,84,20.54l-55.42-.08a4.64,4.64,0,0,0-4.67,4.6l-.07,67.5Z" style="fill:#fff"/><path d="M88.61,41.53l0-16.38A4.63,4.63,0,0,0,84,20.54l-55.42-.08a4.64,4.64,0,0,0-4.67,4.6l0,16.38Z" style="fill:#9cf"/><rect x="53.55" y="6.42" width="5.37" height="64.75" transform="translate(17.36 94.98) rotate(-89.92)" style="fill:#0e2443;mix-blend-mode:multiply"/><path d="M43.58,28.67A3.58,3.58,0,1,1,40,25.08,3.57,3.57,0,0,1,43.58,28.67Z" style="fill:#cfe1ff"/><path d="M43.06,32.65a5,5,0,1,1-6.11-8,5,5,0,0,1,6.11,8ZM38.69,27a2.14,2.14,0,0,0-.84,1.7A2.15,2.15,0,0,0,40,30.81a2.18,2.18,0,0,0,2.15-2.14,2.14,2.14,0,0,0-.63-1.52A2.16,2.16,0,0,0,38.69,27Z" style="fill:#fff"/><path d="M59.83,28.69a3.58,3.58,0,1,1-3.57-3.59A3.58,3.58,0,0,1,59.83,28.69Z" style="fill:#cfe1ff"/><path d="M59.31,32.67a4.93,4.93,0,0,1-3.06,1,5,5,0,0,1-3-9,5,5,0,0,1,3.06-1,5,5,0,0,1,3.05,9ZM55,27a2.12,2.12,0,0,0-.85,1.7,2.17,2.17,0,0,0,2.15,2.16,2.19,2.19,0,0,0,2.15-2.15,2.15,2.15,0,0,0-2.15-2.15A2.1,2.1,0,0,0,55,27Z" style="fill:#fff"/><path d="M76.09,28.72a3.59,3.59,0,1,1-3.58-3.59A3.58,3.58,0,0,1,76.09,28.72Z" style="fill:#cfe1ff"/><path d="M75.56,32.69A5,5,0,0,1,69,32.25a5,5,0,0,1,.5-7.52,5,5,0,0,1,6.11,8ZM71.2,27a2.12,2.12,0,0,0-.84,1.71A2.05,2.05,0,0,0,71,30.22a2.14,2.14,0,0,0,1.51.64,2.19,2.19,0,0,0,2.15-2.15,2.15,2.15,0,0,0-2.15-2.15A2.19,2.19,0,0,0,71.2,27Z" style="fill:#fff"/><path d="M42.44,27A2.45,2.45,0,0,1,40,29.46h0A2.43,2.43,0,0,1,37.57,27V20.09A2.45,2.45,0,0,1,40,17.66h0a2.44,2.44,0,0,1,2.44,2.44Z" style="fill:#80b1ff"/><path d="M58.69,27.05a2.43,2.43,0,0,1-2.44,2.43h0A2.43,2.43,0,0,1,53.82,27V20.12a2.43,2.43,0,0,1,2.43-2.44h0a2.44,2.44,0,0,1,2.44,2.44Z" style="fill:#80b1ff"/><path d="M74.94,27.07A2.43,2.43,0,0,1,72.5,29.5h0a2.43,2.43,0,0,1-2.43-2.43V20.14a2.44,2.44,0,0,1,2.44-2.44h0A2.45,2.45,0,0,1,75,20.14Z" style="fill:#80b1ff"/><path d="M32.35,75.74q4.53-3.76,7.21-6.28A29.84,29.84,0,0,0,44,64.21a9.8,9.8,0,0,0,1.79-5.36,5.77,5.77,0,0,0-1.13-3.77,4.28,4.28,0,0,0-3.49-1.36,4.38,4.38,0,0,0-3.62,1.57,6.85,6.85,0,0,0-1.32,4.31h-6.4C30,55.83,31.11,53,33.23,51a11.46,11.46,0,0,1,8.07-2.91c3.57,0,6.32,1,8.23,2.84a10.08,10.08,0,0,1,2.87,7.51,13.53,13.53,0,0,1-2,7,27.71,27.71,0,0,1-4.52,5.81q-2.53,2.47-6.64,6H53.16v5.46H29.91v-4.9Z" style="fill:#0e2443"/><path d="M80.36,54.56H65.11v8a7.15,7.15,0,0,1,2.83-2,9.84,9.84,0,0,1,3.9-.78A10.67,10.67,0,0,1,78,61.48a9.52,9.52,0,0,1,3.48,4.21,14,14,0,0,1,1.08,5.49,12.18,12.18,0,0,1-3.08,8.7q-3.08,3.3-8.78,3.3a12.94,12.94,0,0,1-8.56-2.68,10.09,10.09,0,0,1-3.63-7h6.4a5.12,5.12,0,0,0,1.91,3,6.1,6.1,0,0,0,3.79,1.13,5.06,5.06,0,0,0,4.19-1.75,7.09,7.09,0,0,0,1.41-4.61,6.27,6.27,0,0,0-1.44-4.45,5.49,5.49,0,0,0-4.21-1.53,5.32,5.32,0,0,0-3.29,1,5.43,5.43,0,0,0-1.89,2.64h-6.3V48.77H80.36Z" style="fill:#0e2443"/></g></svg>