<svg xmlns="http://www.w3.org/2000/svg" viewBox="0 0 112.43 112.43"><title>calendario_dia_9_1</title><g style="isolation:isolate"><path d="M112.43,56.22A56.22,56.22,0,1,1,56.22,0,56.22,56.22,0,0,1,112.43,56.22Z" style="fill:#f5f8ff"/><path d="M88.56,92.56l.07-67.41A4.63,4.63,0,0,0,84,20.54l-55.42-.08a4.64,4.64,0,0,0-4.67,4.6l-.07,67.5Z" style="fill:#fff"/><path d="M88.61,41.53l0-16.38A4.63,4.63,0,0,0,84,20.54l-55.42-.08a4.64,4.64,0,0,0-4.67,4.6l0,16.38Z" style="fill:#9cf"/><rect x="53.55" y="6.42" width="5.37" height="64.75" transform="translate(17.36 94.98) rotate(-89.92)" style="fill:#0e2443;mix-blend-mode:multiply"/><path d="M43.58,28.67A3.58,3.58,0,1,1,40,25.08,3.57,3.57,0,0,1,43.58,28.67Z" style="fill:#cfe1ff"/><path d="M43.06,32.65a5,5,0,1,1-6.11-8,5,5,0,0,1,6.11,8ZM38.69,27a2.14,2.14,0,0,0-.84,1.7A2.15,2.15,0,0,0,40,30.81a2.18,2.18,0,0,0,2.15-2.14,2.14,2.14,0,0,0-.63-1.52A2.16,2.16,0,0,0,38.69,27Z" style="fill:#fff"/><path d="M59.83,28.69a3.58,3.58,0,1,1-3.57-3.59A3.58,3.58,0,0,1,59.83,28.69Z" style="fill:#cfe1ff"/><path d="M59.31,32.67a4.93,4.93,0,0,1-3.06,1,5,5,0,0,1-3-9,5,5,0,0,1,3.06-1,5,5,0,0,1,3.05,9ZM55,27a2.12,2.12,0,0,0-.85,1.7,2.17,2.17,0,0,0,2.15,2.16,2.19,2.19,0,0,0,2.15-2.15,2.15,2.15,0,0,0-2.15-2.15A2.1,2.1,0,0,0,55,27Z" style="fill:#fff"/><path d="M76.09,28.72a3.59,3.59,0,1,1-3.58-3.59A3.58,3.58,0,0,1,76.09,28.72Z" style="fill:#cfe1ff"/><path d="M75.56,32.69A5,5,0,0,1,69,32.25a5,5,0,0,1,.5-7.52,5,5,0,0,1,6.11,8ZM71.2,27a2.12,2.12,0,0,0-.84,1.71A2.05,2.05,0,0,0,71,30.22a2.14,2.14,0,0,0,1.51.64,2.19,2.19,0,0,0,2.15-2.15,2.15,2.15,0,0,0-2.15-2.15A2.19,2.19,0,0,0,71.2,27Z" style="fill:#fff"/><path d="M42.44,27A2.45,2.45,0,0,1,40,29.46h0A2.43,2.43,0,0,1,37.57,27V20.09A2.45,2.45,0,0,1,40,17.66h0a2.44,2.44,0,0,1,2.44,2.44Z" style="fill:#80b1ff"/><path d="M58.69,27.05a2.43,2.43,0,0,1-2.44,2.43h0A2.43,2.43,0,0,1,53.82,27V20.12a2.43,2.43,0,0,1,2.43-2.44h0a2.44,2.44,0,0,1,2.44,2.44Z" style="fill:#80b1ff"/><path d="M74.94,27.07A2.43,2.43,0,0,1,72.5,29.5h0a2.43,2.43,0,0,1-2.43-2.43V20.14a2.44,2.44,0,0,1,2.44-2.44h0A2.45,2.45,0,0,1,75,20.14Z" style="fill:#80b1ff"/><path d="M31.79,52.82q2.94-4.6,9.77-4.61t9.76,4.61q2.94,4.62,2.94,12.76T51.32,78.43q-2.94,4.65-9.76,4.66t-9.77-4.66q-2.94-4.67-2.94-12.85T31.79,52.82Zm15.53,6.9a7.89,7.89,0,0,0-1.79-3.89,5,5,0,0,0-4-1.5,5.06,5.06,0,0,0-4,1.5,8,8,0,0,0-1.79,3.89,32.09,32.09,0,0,0-.45,5.86,35.91,35.91,0,0,0,.43,6,7.48,7.48,0,0,0,1.79,3.9,5.16,5.16,0,0,0,4,1.49,5.18,5.18,0,0,0,4-1.49,7.56,7.56,0,0,0,1.79-3.9,36,36,0,0,0,.42-6A32.09,32.09,0,0,0,47.32,59.72Z" style="fill:#0e2443"/><path d="M68.6,76.71a5.51,5.51,0,0,0,3.6,1.1,4.46,4.46,0,0,0,4.23-2.42q1.32-2.43,1.32-8.17a7.08,7.08,0,0,1-3,2.36,10.52,10.52,0,0,1-4.21.84,11.67,11.67,0,0,1-5.43-1.24,9.17,9.17,0,0,1-3.84-3.72,11.94,11.94,0,0,1-1.41-6,11.2,11.2,0,0,1,3.1-8.31,11.55,11.55,0,0,1,8.48-3.08q6.67,0,9.43,4.28t2.76,12.9a39.46,39.46,0,0,1-1.06,10,9.85,9.85,0,0,1-10.62,8A12.25,12.25,0,0,1,66,81.89a9.66,9.66,0,0,1-3.74-3.53,10.84,10.84,0,0,1-1.48-4.83h6.12A5.12,5.12,0,0,0,68.6,76.71Zm7.13-13.16a5.67,5.67,0,0,0,1.41-4,6,6,0,0,0-1.48-4.31,5.35,5.35,0,0,0-4-1.53,5.23,5.23,0,0,0-4,1.58,6.51,6.51,0,0,0,0,8.23,5.55,5.55,0,0,0,4.31,1.58A5,5,0,0,0,75.73,63.55Z" style="fill:#0e2443"/></g></svg>