<svg xmlns="http://www.w3.org/2000/svg" viewBox="0 0 112.43 112.43"><title>calendario_dia_28_1</title><g style="isolation:isolate"><path d="M112.43,56.22A56.22,56.22,0,1,1,56.22,0,56.22,56.22,0,0,1,112.43,56.22Z" style="fill:#f5f8ff"/><path d="M88.56,92.56l.07-67.41A4.63,4.63,0,0,0,84,20.54l-55.42-.08a4.64,4.64,0,0,0-4.67,4.6l-.07,67.5Z" style="fill:#fff"/><path d="M88.61,41.53l0-16.38A4.63,4.63,0,0,0,84,20.54l-55.42-.08a4.64,4.64,0,0,0-4.67,4.6l0,16.38Z" style="fill:#9cf"/><rect x="53.55" y="6.42" width="5.37" height="64.75" transform="translate(17.36 94.98) rotate(-89.92)" style="fill:#0e2443;mix-blend-mode:multiply"/><path d="M43.58,28.67A3.58,3.58,0,1,1,40,25.08,3.57,3.57,0,0,1,43.58,28.67Z" style="fill:#cfe1ff"/><path d="M43.06,32.65a5,5,0,1,1-6.11-8,5,5,0,0,1,6.11,8ZM38.69,27a2.14,2.14,0,0,0-.84,1.7A2.15,2.15,0,0,0,40,30.81a2.18,2.18,0,0,0,2.15-2.14,2.14,2.14,0,0,0-.63-1.52A2.16,2.16,0,0,0,38.69,27Z" style="fill:#fff"/><path d="M59.83,28.69a3.58,3.58,0,1,1-3.57-3.59A3.58,3.58,0,0,1,59.83,28.69Z" style="fill:#cfe1ff"/><path d="M59.31,32.67a4.93,4.93,0,0,1-3.06,1,5,5,0,0,1-3-9,5,5,0,0,1,3.06-1,5,5,0,0,1,3.05,9ZM55,27a2.12,2.12,0,0,0-.85,1.7,2.17,2.17,0,0,0,2.15,2.16,2.19,2.19,0,0,0,2.15-2.15,2.15,2.15,0,0,0-2.15-2.15A2.1,2.1,0,0,0,55,27Z" style="fill:#fff"/><path d="M76.09,28.72a3.59,3.59,0,1,1-3.58-3.59A3.58,3.58,0,0,1,76.09,28.72Z" style="fill:#cfe1ff"/><path d="M75.56,32.69A5,5,0,0,1,69,32.25a5,5,0,0,1,.5-7.52,5,5,0,0,1,6.11,8ZM71.2,27a2.12,2.12,0,0,0-.84,1.71A2.05,2.05,0,0,0,71,30.22a2.14,2.14,0,0,0,1.51.64,2.19,2.19,0,0,0,2.15-2.15,2.15,2.15,0,0,0-2.15-2.15A2.19,2.19,0,0,0,71.2,27Z" style="fill:#fff"/><path d="M42.44,27A2.45,2.45,0,0,1,40,29.46h0A2.43,2.43,0,0,1,37.57,27V20.09A2.45,2.45,0,0,1,40,17.66h0a2.44,2.44,0,0,1,2.44,2.44Z" style="fill:#80b1ff"/><path d="M58.69,27.05a2.43,2.43,0,0,1-2.44,2.43h0A2.43,2.43,0,0,1,53.82,27V20.12a2.43,2.43,0,0,1,2.43-2.44h0a2.44,2.44,0,0,1,2.44,2.44Z" style="fill:#80b1ff"/><path d="M74.94,27.07A2.43,2.43,0,0,1,72.5,29.5h0a2.43,2.43,0,0,1-2.43-2.43V20.14a2.44,2.44,0,0,1,2.44-2.44h0A2.45,2.45,0,0,1,75,20.14Z" style="fill:#80b1ff"/><path d="M32.47,75.74Q37,72,39.67,69.46a29,29,0,0,0,4.47-5.25,9.72,9.72,0,0,0,1.79-5.36,5.71,5.71,0,0,0-1.13-3.77,4.25,4.25,0,0,0-3.48-1.36,4.37,4.37,0,0,0-3.62,1.57,6.85,6.85,0,0,0-1.32,4.31H30C30.1,55.83,31.23,53,33.34,51a11.5,11.5,0,0,1,8.08-2.91c3.57,0,6.32,1,8.23,2.84a10.08,10.08,0,0,1,2.87,7.51,13.63,13.63,0,0,1-2,7A27.71,27.71,0,0,1,46,71.29q-2.55,2.47-6.64,6H53.28v5.46H30v-4.9Z" style="fill:#0e2443"/><path d="M58.45,57.43a8.59,8.59,0,0,1,1.3-4.63,8.91,8.91,0,0,1,3.9-3.34A14.75,14.75,0,0,1,70,48.21a14.75,14.75,0,0,1,6.38,1.25,8.91,8.91,0,0,1,3.9,3.34,8.59,8.59,0,0,1,1.3,4.63A8.15,8.15,0,0,1,80.34,62,8.7,8.7,0,0,1,77,65a9.26,9.26,0,0,1,4,3.3,9,9,0,0,1,1.46,5.13A9.57,9.57,0,0,1,80.83,79a10.37,10.37,0,0,1-4.45,3.65,16.46,16.46,0,0,1-12.68,0A10.4,10.4,0,0,1,59.28,79a9.57,9.57,0,0,1-1.63-5.57,9.11,9.11,0,0,1,1.46-5.16,8.77,8.77,0,0,1,4-3.27A8,8,0,0,1,58.45,57.43Zm7.23,11.82A4.73,4.73,0,0,0,64,73.15,5,5,0,0,0,65.63,77,6.26,6.26,0,0,0,70,78.47,6.16,6.16,0,0,0,74.41,77,5.06,5.06,0,0,0,76,73.15a4.8,4.8,0,0,0-1.65-3.88A6.52,6.52,0,0,0,70,67.88,6.64,6.64,0,0,0,65.68,69.25ZM73.82,54.8A5.4,5.4,0,0,0,70,53.53a5.3,5.3,0,0,0-3.74,1.27,4.64,4.64,0,0,0-1.39,3.62,4.31,4.31,0,0,0,1.44,3.39A5.32,5.32,0,0,0,70,63.08a5.4,5.4,0,0,0,3.72-1.29,4.34,4.34,0,0,0,1.46-3.41A4.6,4.6,0,0,0,73.82,54.8Z" style="fill:#0e2443"/></g></svg>