<svg xmlns="http://www.w3.org/2000/svg" viewBox="0 0 112.43 112.43"><title>calendario_dia_29_1</title><g style="isolation:isolate"><path d="M112.43,56.22A56.22,56.22,0,1,1,56.22,0,56.22,56.22,0,0,1,112.43,56.22Z" style="fill:#f5f8ff"/><path d="M88.56,92.56l.07-67.41A4.63,4.63,0,0,0,84,20.54l-55.42-.08a4.64,4.64,0,0,0-4.67,4.6l-.07,67.5Z" style="fill:#fff"/><path d="M88.61,41.53l0-16.38A4.63,4.63,0,0,0,84,20.54l-55.42-.08a4.64,4.64,0,0,0-4.67,4.6l0,16.38Z" style="fill:#9cf"/><rect x="53.55" y="6.42" width="5.37" height="64.75" transform="translate(17.36 94.98) rotate(-89.92)" style="fill:#0e2443;mix-blend-mode:multiply"/><path d="M43.58,28.67A3.58,3.58,0,1,1,40,25.08,3.57,3.57,0,0,1,43.58,28.67Z" style="fill:#cfe1ff"/><path d="M43.06,32.65a5,5,0,1,1-6.11-8,5,5,0,0,1,6.11,8ZM38.69,27a2.14,2.14,0,0,0-.84,1.7A2.15,2.15,0,0,0,40,30.81a2.18,2.18,0,0,0,2.15-2.14,2.14,2.14,0,0,0-.63-1.52A2.16,2.16,0,0,0,38.69,27Z" style="fill:#fff"/><path d="M59.83,28.69a3.58,3.58,0,1,1-3.57-3.59A3.58,3.58,0,0,1,59.83,28.69Z" style="fill:#cfe1ff"/><path d="M59.31,32.67a4.93,4.93,0,0,1-3.06,1,5,5,0,0,1-3-9,5,5,0,0,1,3.06-1,5,5,0,0,1,3.05,9ZM55,27a2.12,2.12,0,0,0-.85,1.7,2.17,2.17,0,0,0,2.15,2.16,2.19,2.19,0,0,0,2.15-2.15,2.15,2.15,0,0,0-2.15-2.15A2.1,2.1,0,0,0,55,27Z" style="fill:#fff"/><path d="M76.09,28.72a3.59,3.59,0,1,1-3.58-3.59A3.58,3.58,0,0,1,76.09,28.72Z" style="fill:#cfe1ff"/><path d="M75.56,32.69A5,5,0,0,1,69,32.25a5,5,0,0,1,.5-7.52,5,5,0,0,1,6.11,8ZM71.2,27a2.12,2.12,0,0,0-.84,1.71A2.05,2.05,0,0,0,71,30.22a2.14,2.14,0,0,0,1.51.64,2.19,2.19,0,0,0,2.15-2.15,2.15,2.15,0,0,0-2.15-2.15A2.19,2.19,0,0,0,71.2,27Z" style="fill:#fff"/><path d="M42.44,27A2.45,2.45,0,0,1,40,29.46h0A2.43,2.43,0,0,1,37.57,27V20.09A2.45,2.45,0,0,1,40,17.66h0a2.44,2.44,0,0,1,2.44,2.44Z" style="fill:#80b1ff"/><path d="M58.69,27.05a2.43,2.43,0,0,1-2.44,2.43h0A2.43,2.43,0,0,1,53.82,27V20.12a2.43,2.43,0,0,1,2.43-2.44h0a2.44,2.44,0,0,1,2.44,2.44Z" style="fill:#80b1ff"/><path d="M74.94,27.07A2.43,2.43,0,0,1,72.5,29.5h0a2.43,2.43,0,0,1-2.43-2.43V20.14a2.44,2.44,0,0,1,2.44-2.44h0A2.45,2.45,0,0,1,75,20.14Z" style="fill:#80b1ff"/><path d="M32.83,75.74Q37.35,72,40,69.46a29.42,29.42,0,0,0,4.47-5.25,9.8,9.8,0,0,0,1.79-5.36,5.77,5.77,0,0,0-1.13-3.77,4.28,4.28,0,0,0-3.49-1.36,4.38,4.38,0,0,0-3.62,1.57,6.85,6.85,0,0,0-1.32,4.31h-6.4C30.46,55.83,31.58,53,33.7,51a11.46,11.46,0,0,1,8.07-2.91q5.37,0,8.23,2.84a10.09,10.09,0,0,1,2.88,7.51,13.54,13.54,0,0,1-2,7,27.71,27.71,0,0,1-4.52,5.81q-2.54,2.47-6.64,6H53.63v5.46H30.38v-4.9Z" style="fill:#0e2443"/><path d="M67.11,76.71a5.49,5.49,0,0,0,3.6,1.1A4.46,4.46,0,0,0,75,75.39q1.32-2.43,1.32-8.17a7.14,7.14,0,0,1-3,2.36,10.55,10.55,0,0,1-4.21.84,11.74,11.74,0,0,1-5.44-1.24,9.2,9.2,0,0,1-3.83-3.72,11.94,11.94,0,0,1-1.41-6,11.2,11.2,0,0,1,3.1-8.31,11.52,11.52,0,0,1,8.47-3.08q6.69,0,9.44,4.28t2.75,12.9a39,39,0,0,1-1.06,10,10.84,10.84,0,0,1-3.62,5.93,11,11,0,0,1-7,2,12.23,12.23,0,0,1-5.93-1.34,9.66,9.66,0,0,1-3.74-3.53,10.84,10.84,0,0,1-1.48-4.83h6.11A5.22,5.22,0,0,0,67.11,76.71Zm7.13-13.16a5.62,5.62,0,0,0,1.41-4,5.92,5.92,0,0,0-1.48-4.31,5.34,5.34,0,0,0-4-1.53,5.27,5.27,0,0,0-4,1.58,5.86,5.86,0,0,0-1.48,4.16,5.79,5.79,0,0,0,1.44,4.07,5.52,5.52,0,0,0,4.3,1.58A5,5,0,0,0,74.24,63.55Z" style="fill:#0e2443"/></g></svg>