<svg xmlns="http://www.w3.org/2000/svg" viewBox="0 0 112.43 112.43"><title>calendario_dia_2_1</title><g style="isolation:isolate"><path d="M112.43,56.22A56.22,56.22,0,1,1,56.22,0,56.22,56.22,0,0,1,112.43,56.22Z" style="fill:#f5f8ff"/><path d="M88.56,92.56l.07-67.41A4.63,4.63,0,0,0,84,20.54l-55.42-.08a4.64,4.64,0,0,0-4.67,4.6l-.07,67.5Z" style="fill:#fff"/><path d="M88.58,41.53l0-16.38A4.63,4.63,0,0,0,84,20.54l-55.43-.08a4.62,4.62,0,0,0-4.66,4.6l0,16.38Z" style="fill:#9cf"/><rect x="53.53" y="6.42" width="5.37" height="64.75" transform="translate(17.34 94.96) rotate(-89.92)" style="fill:#0e2443;mix-blend-mode:multiply"/><path d="M59.8,28.67a3.58,3.58,0,1,1-3.58-3.59A3.58,3.58,0,0,1,59.8,28.67Z" style="fill:#cfe1ff"/><path d="M59.27,32.65a5,5,0,0,1-3.06,1,5,5,0,0,1-3.05-9,5,5,0,0,1,6.11,8ZM54.91,27a2.14,2.14,0,0,0-.84,1.7,2.15,2.15,0,0,0,2.14,2.15,2.18,2.18,0,0,0,2.15-2.14,2.09,2.09,0,0,0-.62-1.52A2.16,2.16,0,0,0,54.91,27Z" style="fill:#fff"/><path d="M59.8,28.69a3.59,3.59,0,1,1-3.58-3.59A3.58,3.58,0,0,1,59.8,28.69Z" style="fill:#cfe1ff"/><path d="M59.27,32.67a4.89,4.89,0,0,1-3.06,1,5,5,0,0,1-5-5,5,5,0,0,1,5-5,5,5,0,0,1,3.05,9ZM54.91,27a2.15,2.15,0,0,0,1.3,3.86,2.21,2.21,0,0,0,2.16-2.15A2.16,2.16,0,0,0,54.91,27Z" style="fill:#fff"/><path d="M59.8,28.72a3.58,3.58,0,1,1-3.58-3.59A3.58,3.58,0,0,1,59.8,28.72Z" style="fill:#cfe1ff"/><path d="M59.27,32.69a5,5,0,0,1-3.06,1,5,5,0,0,1-5-5,5,5,0,0,1,5-5,5,5,0,0,1,3.05,9ZM54.91,27a2.15,2.15,0,0,0-.84,1.71,2.09,2.09,0,0,0,.63,1.51,2.14,2.14,0,0,0,1.51.64,2.2,2.2,0,0,0,2.16-2.15,2.16,2.16,0,0,0-2.15-2.15A2.2,2.2,0,0,0,54.91,27Z" style="fill:#fff"/><path d="M58.65,27a2.43,2.43,0,0,1-2.44,2.43h0A2.43,2.43,0,0,1,53.78,27V20.09a2.45,2.45,0,0,1,2.44-2.43h0a2.44,2.44,0,0,1,2.44,2.44Z" style="fill:#80b1ff"/><path d="M58.65,27.05a2.43,2.43,0,0,1-2.44,2.43h0A2.43,2.43,0,0,1,53.78,27V20.12a2.43,2.43,0,0,1,2.43-2.44h0a2.44,2.44,0,0,1,2.44,2.44Z" style="fill:#80b1ff"/><path d="M58.65,27.07a2.43,2.43,0,0,1-2.44,2.43h0a2.43,2.43,0,0,1-2.43-2.43V20.14a2.43,2.43,0,0,1,2.43-2.44h0a2.45,2.45,0,0,1,2.44,2.44Z" style="fill:#80b1ff"/><path d="M32.52,52.82q2.94-4.6,9.77-4.61t9.76,4.61Q55,57.44,55,65.58T52.05,78.43q-2.94,4.65-9.76,4.66t-9.77-4.66q-2.94-4.67-2.94-12.85T32.52,52.82Zm15.53,6.9a7.89,7.89,0,0,0-1.79-3.89,5,5,0,0,0-4-1.5,5.06,5.06,0,0,0-4,1.5,8,8,0,0,0-1.79,3.89,32.09,32.09,0,0,0-.45,5.86,34.87,34.87,0,0,0,.43,6,7.41,7.41,0,0,0,1.79,3.9,5.16,5.16,0,0,0,4,1.49,5.18,5.18,0,0,0,4-1.49,7.56,7.56,0,0,0,1.79-3.9,36,36,0,0,0,.42-6A32.09,32.09,0,0,0,48.05,59.72Z" style="fill:#0e2443"/><path d="M62.05,75.74q4.53-3.76,7.2-6.28a29.5,29.5,0,0,0,4.48-5.25,9.78,9.78,0,0,0,1.78-5.36,5.71,5.71,0,0,0-1.13-3.77,4.25,4.25,0,0,0-3.48-1.36,4.37,4.37,0,0,0-3.62,1.57A6.85,6.85,0,0,0,66,59.6h-6.4c.12-3.77,1.25-6.62,3.36-8.57A11.5,11.5,0,0,1,71,48.12c3.57,0,6.32,1,8.23,2.84a10.08,10.08,0,0,1,2.87,7.51,13.63,13.63,0,0,1-2,7,28,28,0,0,1-4.52,5.82q-2.55,2.46-6.64,6H82.86v5.46H59.61v-4.9Z" style="fill:#0e2443"/></g></svg>