<svg xmlns="http://www.w3.org/2000/svg" viewBox="0 0 112.43 113.94"><title>calendaro</title><g style="isolation:isolate"><path d="M112.43,56.22A56.22,56.22,0,1,1,56.22,0,56.22,56.22,0,0,1,112.43,56.22Z" style="fill:#f5f8ff"/><path d="M88.56,94l.07-67.41A4.63,4.63,0,0,0,84,22l-55.42-.08a4.64,4.64,0,0,0-4.67,4.6L23.81,94Z" style="fill:#fff"/><path d="M88.61,43l0-16.38A4.63,4.63,0,0,0,84,22l-55.42-.08a4.64,4.64,0,0,0-4.67,4.6l0,16.38Z" style="fill:#9cf"/><rect x="53.55" y="7.87" width="5.37" height="64.75" transform="translate(15.91 96.43) rotate(-89.92)" style="fill:#0e2443;mix-blend-mode:multiply"/><path d="M43.58,30.12A3.58,3.58,0,1,1,40,26.54,3.57,3.57,0,0,1,43.58,30.12Z" style="fill:#cfe1ff"/><path d="M43.06,34.1a5,5,0,1,1-3.05-9,5,5,0,0,1,3.05,9Zm-4.37-5.69a2.14,2.14,0,0,0-.84,1.7,2.1,2.1,0,0,0,.63,1.52,2.08,2.08,0,0,0,1.52.63,2.14,2.14,0,0,0,1.52-3.66,2.16,2.16,0,0,0-2.83-.19Z" style="fill:#fff"/><path d="M59.83,30.14a3.58,3.58,0,1,1-3.57-3.59A3.57,3.57,0,0,1,59.83,30.14Z" style="fill:#cfe1ff"/><path d="M59.31,34.12a5,5,0,1,1,2-4A5,5,0,0,1,59.31,34.12ZM55,28.43a2.13,2.13,0,0,0-.85,1.71,2.16,2.16,0,0,0,2.15,2.15,2.19,2.19,0,0,0,2.15-2.15A2.15,2.15,0,0,0,56.25,28,2.1,2.1,0,0,0,55,28.43Z" style="fill:#fff"/><path d="M76.09,30.17a3.59,3.59,0,1,1-3.58-3.59A3.58,3.58,0,0,1,76.09,30.17Z" style="fill:#cfe1ff"/><path d="M75.56,34.14A5,5,0,0,1,69,33.71a5,5,0,0,1,3.56-8.57,5,5,0,0,1,5,5A4.94,4.94,0,0,1,75.56,34.14ZM71.2,28.45a2.13,2.13,0,0,0-.84,1.71A2.09,2.09,0,0,0,71,31.68a2.13,2.13,0,0,0,1.51.63,2.19,2.19,0,0,0,2.15-2.15A2.16,2.16,0,0,0,72.5,28,2.19,2.19,0,0,0,71.2,28.45Z" style="fill:#fff"/><path d="M42.44,28.48A2.44,2.44,0,0,1,40,30.91h0a2.43,2.43,0,0,1-2.43-2.43V21.54A2.45,2.45,0,0,1,40,19.11h0a2.44,2.44,0,0,1,2.44,2.44Z" style="fill:#80b1ff"/><path d="M58.69,28.5a2.44,2.44,0,0,1-2.44,2.44h0a2.45,2.45,0,0,1-2.43-2.45V21.57a2.42,2.42,0,0,1,2.43-2.43h0a2.43,2.43,0,0,1,2.44,2.43Z" style="fill:#80b1ff"/><path d="M74.94,28.52A2.44,2.44,0,0,1,72.5,31h0a2.44,2.44,0,0,1-2.43-2.44V21.59a2.43,2.43,0,0,1,2.44-2.43h0A2.43,2.43,0,0,1,75,21.6Z" style="fill:#80b1ff"/><text transform="translate(31.78 86.03)" style="font-size:47.06555938720703px;fill:#0e2443;font-family:Poppins-SemiBold, Poppins;font-weight:600">01</text></g></svg>