<svg xmlns="http://www.w3.org/2000/svg" viewBox="0 0 112.43 112.43"><title>calendario_dia_23_1</title><g style="isolation:isolate"><path d="M112.43,56.22A56.22,56.22,0,1,1,56.22,0,56.22,56.22,0,0,1,112.43,56.22Z" style="fill:#f5f8ff"/><path d="M88.56,92.56l.07-67.41A4.63,4.63,0,0,0,84,20.54l-55.42-.08a4.64,4.64,0,0,0-4.67,4.6l-.07,67.5Z" style="fill:#fff"/><path d="M88.61,41.53l0-16.38A4.63,4.63,0,0,0,84,20.54l-55.42-.08a4.64,4.64,0,0,0-4.67,4.6l0,16.38Z" style="fill:#9cf"/><rect x="53.55" y="6.42" width="5.37" height="64.75" transform="translate(17.36 94.98) rotate(-89.92)" style="fill:#0e2443;mix-blend-mode:multiply"/><path d="M43.58,28.67A3.58,3.58,0,1,1,40,25.08,3.57,3.57,0,0,1,43.58,28.67Z" style="fill:#cfe1ff"/><path d="M43.06,32.65a5,5,0,1,1-6.11-8,5,5,0,0,1,6.11,8ZM38.69,27a2.14,2.14,0,0,0-.84,1.7A2.15,2.15,0,0,0,40,30.81a2.18,2.18,0,0,0,2.15-2.14,2.14,2.14,0,0,0-.63-1.52A2.16,2.16,0,0,0,38.69,27Z" style="fill:#fff"/><path d="M59.83,28.69a3.58,3.58,0,1,1-3.57-3.59A3.58,3.58,0,0,1,59.83,28.69Z" style="fill:#cfe1ff"/><path d="M59.31,32.67a4.93,4.93,0,0,1-3.06,1,5,5,0,0,1-3-9,5,5,0,0,1,3.06-1,5,5,0,0,1,3.05,9ZM55,27a2.12,2.12,0,0,0-.85,1.7,2.17,2.17,0,0,0,2.15,2.16,2.19,2.19,0,0,0,2.15-2.15,2.15,2.15,0,0,0-2.15-2.15A2.1,2.1,0,0,0,55,27Z" style="fill:#fff"/><path d="M76.09,28.72a3.59,3.59,0,1,1-3.58-3.59A3.58,3.58,0,0,1,76.09,28.72Z" style="fill:#cfe1ff"/><path d="M75.56,32.69A5,5,0,0,1,69,32.25a5,5,0,0,1,.5-7.52,5,5,0,0,1,6.11,8ZM71.2,27a2.12,2.12,0,0,0-.84,1.71A2.05,2.05,0,0,0,71,30.22a2.14,2.14,0,0,0,1.51.64,2.19,2.19,0,0,0,2.15-2.15,2.15,2.15,0,0,0-2.15-2.15A2.19,2.19,0,0,0,71.2,27Z" style="fill:#fff"/><path d="M42.44,27A2.45,2.45,0,0,1,40,29.46h0A2.43,2.43,0,0,1,37.57,27V20.09A2.45,2.45,0,0,1,40,17.66h0a2.44,2.44,0,0,1,2.44,2.44Z" style="fill:#80b1ff"/><path d="M58.69,27.05a2.43,2.43,0,0,1-2.44,2.43h0A2.43,2.43,0,0,1,53.82,27V20.12a2.43,2.43,0,0,1,2.43-2.44h0a2.44,2.44,0,0,1,2.44,2.44Z" style="fill:#80b1ff"/><path d="M74.94,27.07A2.43,2.43,0,0,1,72.5,29.5h0a2.43,2.43,0,0,1-2.43-2.43V20.14a2.44,2.44,0,0,1,2.44-2.44h0A2.45,2.45,0,0,1,75,20.14Z" style="fill:#80b1ff"/><path d="M33.51,75.74Q38,72,40.71,69.46a29,29,0,0,0,4.47-5.25A9.8,9.8,0,0,0,47,58.85a5.77,5.77,0,0,0-1.13-3.77,4.26,4.26,0,0,0-3.48-1.36,4.4,4.4,0,0,0-3.63,1.57,6.92,6.92,0,0,0-1.32,4.31H31c.13-3.77,1.25-6.62,3.37-8.57a11.49,11.49,0,0,1,8.07-2.91c3.58,0,6.32.94,8.24,2.84a10.12,10.12,0,0,1,2.87,7.51,13.52,13.52,0,0,1-2,7,27.71,27.71,0,0,1-4.52,5.82q-2.54,2.46-6.63,6H54.31v5.46H31.06v-4.9Z" style="fill:#0e2443"/><path d="M61.86,50.63A12.3,12.3,0,0,1,70,48.07a13.28,13.28,0,0,1,5.89,1.2,8.6,8.6,0,0,1,3.69,3.25,8.73,8.73,0,0,1,1.25,4.63,8.11,8.11,0,0,1-1.53,5,7.49,7.49,0,0,1-3.65,2.76v.19a7.9,7.9,0,0,1,4.26,3,9.38,9.38,0,0,1,1.53,5.55,9.85,9.85,0,0,1-1.29,5,8.88,8.88,0,0,1-3.82,3.46,13.5,13.5,0,0,1-6,1.24,13.37,13.37,0,0,1-8.66-2.68c-2.23-1.79-3.41-4.42-3.53-7.91h6.4a5.16,5.16,0,0,0,1.57,3.7,5.76,5.76,0,0,0,4.07,1.39,4.92,4.92,0,0,0,3.7-1.34,4.8,4.8,0,0,0,1.29-3.46,4.55,4.55,0,0,0-1.78-4c-1.2-.82-3-1.22-5.56-1.22H66.41V62.42h1.36q6.69,0,6.69-4.47a4.11,4.11,0,0,0-1.21-3.15,4.87,4.87,0,0,0-3.46-1.13,4.62,4.62,0,0,0-3.41,1.2,4.87,4.87,0,0,0-1.39,3H58.55A9.59,9.59,0,0,1,61.86,50.63Z" style="fill:#0e2443"/></g></svg>