<svg xmlns="http://www.w3.org/2000/svg" viewBox="0 0 112.43 112.43"><title>calendario_dia_8_1</title><g style="isolation:isolate"><path d="M112.43,56.22A56.22,56.22,0,1,1,56.22,0,56.22,56.22,0,0,1,112.43,56.22Z" style="fill:#f5f8ff"/><path d="M88.56,92.56l.07-67.41A4.63,4.63,0,0,0,84,20.54l-55.42-.08a4.64,4.64,0,0,0-4.67,4.6l-.07,67.5Z" style="fill:#fff"/><path d="M88.61,41.53l0-16.38A4.63,4.63,0,0,0,84,20.54l-55.42-.08a4.64,4.64,0,0,0-4.67,4.6l0,16.38Z" style="fill:#9cf"/><rect x="53.55" y="6.42" width="5.37" height="64.75" transform="translate(17.36 94.98) rotate(-89.92)" style="fill:#0e2443;mix-blend-mode:multiply"/><path d="M43.58,28.67A3.58,3.58,0,1,1,40,25.08,3.57,3.57,0,0,1,43.58,28.67Z" style="fill:#cfe1ff"/><path d="M43.06,32.65a5,5,0,1,1-6.11-8,5,5,0,0,1,6.11,8ZM38.69,27a2.14,2.14,0,0,0-.84,1.7A2.15,2.15,0,0,0,40,30.81a2.18,2.18,0,0,0,2.15-2.14,2.14,2.14,0,0,0-.63-1.52A2.16,2.16,0,0,0,38.69,27Z" style="fill:#fff"/><path d="M59.83,28.69a3.58,3.58,0,1,1-3.57-3.59A3.58,3.58,0,0,1,59.83,28.69Z" style="fill:#cfe1ff"/><path d="M59.31,32.67a4.93,4.93,0,0,1-3.06,1,5,5,0,0,1-3-9,5,5,0,0,1,3.06-1,5,5,0,0,1,3.05,9ZM55,27a2.12,2.12,0,0,0-.85,1.7,2.17,2.17,0,0,0,2.15,2.16,2.19,2.19,0,0,0,2.15-2.15,2.15,2.15,0,0,0-2.15-2.15A2.1,2.1,0,0,0,55,27Z" style="fill:#fff"/><path d="M76.09,28.72a3.59,3.59,0,1,1-3.58-3.59A3.58,3.58,0,0,1,76.09,28.72Z" style="fill:#cfe1ff"/><path d="M75.56,32.69A5,5,0,0,1,69,32.25a5,5,0,0,1,.5-7.52,5,5,0,0,1,6.11,8ZM71.2,27a2.12,2.12,0,0,0-.84,1.71A2.05,2.05,0,0,0,71,30.22a2.14,2.14,0,0,0,1.51.64,2.19,2.19,0,0,0,2.15-2.15,2.15,2.15,0,0,0-2.15-2.15A2.19,2.19,0,0,0,71.2,27Z" style="fill:#fff"/><path d="M42.44,27A2.45,2.45,0,0,1,40,29.46h0A2.43,2.43,0,0,1,37.57,27V20.09A2.45,2.45,0,0,1,40,17.66h0a2.44,2.44,0,0,1,2.44,2.44Z" style="fill:#80b1ff"/><path d="M58.69,27.05a2.43,2.43,0,0,1-2.44,2.43h0A2.43,2.43,0,0,1,53.82,27V20.12a2.43,2.43,0,0,1,2.43-2.44h0a2.44,2.44,0,0,1,2.44,2.44Z" style="fill:#80b1ff"/><path d="M74.94,27.07A2.43,2.43,0,0,1,72.5,29.5h0a2.43,2.43,0,0,1-2.43-2.43V20.14a2.44,2.44,0,0,1,2.44-2.44h0A2.45,2.45,0,0,1,75,20.14Z" style="fill:#80b1ff"/><path d="M31.44,52.82q2.94-4.6,9.76-4.61T51,52.82q2.94,4.62,2.94,12.76T51,78.43Q48,83.08,41.2,83.09t-9.76-4.66Q28.5,73.76,28.5,65.58T31.44,52.82ZM47,59.72a8,8,0,0,0-1.79-3.89,5.06,5.06,0,0,0-4-1.5,5,5,0,0,0-4,1.5,7.89,7.89,0,0,0-1.79,3.89A32.09,32.09,0,0,0,35,65.58a36,36,0,0,0,.42,6,7.56,7.56,0,0,0,1.79,3.9,5.18,5.18,0,0,0,4,1.49,5.16,5.16,0,0,0,4-1.49A7.48,7.48,0,0,0,47,71.58a35.91,35.91,0,0,0,.43-6A32.09,32.09,0,0,0,47,59.72Z" style="fill:#0e2443"/><path d="M59.94,57.43a8.64,8.64,0,0,1,1.29-4.63,8.89,8.89,0,0,1,3.91-3.34,14.7,14.7,0,0,1,6.37-1.25,14.75,14.75,0,0,1,6.38,1.25A9,9,0,0,1,81.8,52.8a8.64,8.64,0,0,1,1.29,4.63A8.15,8.15,0,0,1,81.82,62a8.7,8.7,0,0,1-3.39,3,9.15,9.15,0,0,1,4,3.3,9,9,0,0,1,1.46,5.13A9.57,9.57,0,0,1,82.31,79a10.4,10.4,0,0,1-4.44,3.65,15.3,15.3,0,0,1-6.36,1.27,15.13,15.13,0,0,1-6.33-1.27A10.46,10.46,0,0,1,60.76,79a9.64,9.64,0,0,1-1.62-5.57,9.1,9.1,0,0,1,1.45-5.16,8.87,8.87,0,0,1,4-3.27A8,8,0,0,1,59.94,57.43Zm7.22,11.82a4.76,4.76,0,0,0-1.67,3.9A5,5,0,0,0,67.11,77a6.28,6.28,0,0,0,4.4,1.48A6.16,6.16,0,0,0,75.89,77a5,5,0,0,0,1.6-3.82,4.8,4.8,0,0,0-1.65-3.88,6.51,6.51,0,0,0-4.33-1.39A6.66,6.66,0,0,0,67.16,69.25ZM75.3,54.8a5.38,5.38,0,0,0-3.79-1.27,5.32,5.32,0,0,0-3.74,1.27,4.68,4.68,0,0,0-1.39,3.62,4.31,4.31,0,0,0,1.44,3.39,6,6,0,0,0,7.41,0,4.34,4.34,0,0,0,1.46-3.41A4.6,4.6,0,0,0,75.3,54.8Z" style="fill:#0e2443"/></g></svg>