<svg xmlns="http://www.w3.org/2000/svg" viewBox="0 0 112.43 112.43"><title>calendario_dia_6_1</title><g style="isolation:isolate"><path d="M112.43,56.22A56.22,56.22,0,1,1,56.22,0,56.22,56.22,0,0,1,112.43,56.22Z" style="fill:#f5f8ff"/><path d="M88.56,92.56l.07-67.41A4.63,4.63,0,0,0,84,20.54l-55.42-.08a4.64,4.64,0,0,0-4.67,4.6l-.07,67.5Z" style="fill:#fff"/><path d="M88.61,41.53l0-16.38A4.63,4.63,0,0,0,84,20.54l-55.42-.08a4.64,4.64,0,0,0-4.67,4.6l0,16.38Z" style="fill:#9cf"/><rect x="53.55" y="6.42" width="5.37" height="64.75" transform="translate(17.36 94.98) rotate(-89.92)" style="fill:#0e2443;mix-blend-mode:multiply"/><path d="M43.58,28.67A3.58,3.58,0,1,1,40,25.08,3.57,3.57,0,0,1,43.58,28.67Z" style="fill:#cfe1ff"/><path d="M43.06,32.65a5,5,0,1,1-6.11-8,5,5,0,0,1,6.11,8ZM38.69,27a2.14,2.14,0,0,0-.84,1.7A2.15,2.15,0,0,0,40,30.81a2.18,2.18,0,0,0,2.15-2.14,2.14,2.14,0,0,0-.63-1.52A2.16,2.16,0,0,0,38.69,27Z" style="fill:#fff"/><path d="M59.83,28.69a3.58,3.58,0,1,1-3.57-3.59A3.58,3.58,0,0,1,59.83,28.69Z" style="fill:#cfe1ff"/><path d="M59.31,32.67a4.93,4.93,0,0,1-3.06,1,5,5,0,0,1-3-9,5,5,0,0,1,3.06-1,5,5,0,0,1,3.05,9ZM55,27a2.12,2.12,0,0,0-.85,1.7,2.17,2.17,0,0,0,2.15,2.16,2.19,2.19,0,0,0,2.15-2.15,2.15,2.15,0,0,0-2.15-2.15A2.1,2.1,0,0,0,55,27Z" style="fill:#fff"/><path d="M76.09,28.72a3.59,3.59,0,1,1-3.58-3.59A3.58,3.58,0,0,1,76.09,28.72Z" style="fill:#cfe1ff"/><path d="M75.56,32.69A5,5,0,0,1,69,32.25a5,5,0,0,1,.5-7.52,5,5,0,0,1,6.11,8ZM71.2,27a2.12,2.12,0,0,0-.84,1.71A2.05,2.05,0,0,0,71,30.22a2.14,2.14,0,0,0,1.51.64,2.19,2.19,0,0,0,2.15-2.15,2.15,2.15,0,0,0-2.15-2.15A2.19,2.19,0,0,0,71.2,27Z" style="fill:#fff"/><path d="M42.44,27A2.45,2.45,0,0,1,40,29.46h0A2.43,2.43,0,0,1,37.57,27V20.09A2.45,2.45,0,0,1,40,17.66h0a2.44,2.44,0,0,1,2.44,2.44Z" style="fill:#80b1ff"/><path d="M58.69,27.05a2.43,2.43,0,0,1-2.44,2.43h0A2.43,2.43,0,0,1,53.82,27V20.12a2.43,2.43,0,0,1,2.43-2.44h0a2.44,2.44,0,0,1,2.44,2.44Z" style="fill:#80b1ff"/><path d="M74.94,27.07A2.43,2.43,0,0,1,72.5,29.5h0a2.43,2.43,0,0,1-2.43-2.43V20.14a2.44,2.44,0,0,1,2.44-2.44h0A2.45,2.45,0,0,1,75,20.14Z" style="fill:#80b1ff"/><path d="M31.39,52.82q2.94-4.6,9.77-4.61t9.76,4.61q2.94,4.62,2.94,12.76T50.92,78.43Q48,83.08,41.16,83.09t-9.77-4.66q-2.94-4.67-2.94-12.85T31.39,52.82Zm15.53,6.9a7.89,7.89,0,0,0-1.79-3.89,5,5,0,0,0-4-1.5,5.06,5.06,0,0,0-4,1.5,7.89,7.89,0,0,0-1.79,3.89,32.09,32.09,0,0,0-.45,5.86,34.87,34.87,0,0,0,.43,6,7.41,7.41,0,0,0,1.79,3.9,5.16,5.16,0,0,0,4,1.49,5.18,5.18,0,0,0,4-1.49A7.56,7.56,0,0,0,47,71.58a36,36,0,0,0,.42-6A32.09,32.09,0,0,0,46.92,59.72Z" style="fill:#0e2443"/><path d="M75,54.47a5,5,0,0,0-3.32-1,5.15,5.15,0,0,0-4.78,2.61c-1,1.74-1.54,4.58-1.57,8.5a7.56,7.56,0,0,1,3.29-2.94,10.5,10.5,0,0,1,4.71-1.06,10.87,10.87,0,0,1,5.41,1.32,9.06,9.06,0,0,1,3.67,3.83,14.2,14.2,0,0,1,0,12,9.7,9.7,0,0,1-3.93,4.07,12.3,12.3,0,0,1-6.17,1.46c-3.26,0-5.83-.72-7.69-2.16a11.28,11.28,0,0,1-3.91-6,35.39,35.39,0,0,1-1.1-9.58q0-8.61,3-13t9.37-4.4q4.94,0,7.67,2.68a10.64,10.64,0,0,1,3.15,6.68H76.64A5.41,5.41,0,0,0,75,54.47Zm-7.37,13A5.27,5.27,0,0,0,66,71.7a5.51,5.51,0,0,0,6,6,5.33,5.33,0,0,0,4-1.55,5.81,5.81,0,0,0,1.48-4.19,6.28,6.28,0,0,0-1.43-4.33A5.38,5.38,0,0,0,71.84,66,6.22,6.22,0,0,0,67.65,67.46Z" style="fill:#0e2443"/></g></svg>