<svg xmlns="http://www.w3.org/2000/svg" viewBox="0 0 112.43 112.43"><title>calendario_dia_26_1</title><g style="isolation:isolate"><path d="M112.43,56.22A56.22,56.22,0,1,1,56.22,0,56.22,56.22,0,0,1,112.43,56.22Z" style="fill:#f5f8ff"/><path d="M88.56,92.56l.07-67.41A4.63,4.63,0,0,0,84,20.54l-55.42-.08a4.64,4.64,0,0,0-4.67,4.6l-.07,67.5Z" style="fill:#fff"/><path d="M88.61,41.53l0-16.38A4.63,4.63,0,0,0,84,20.54l-55.42-.08a4.64,4.64,0,0,0-4.67,4.6l0,16.38Z" style="fill:#9cf"/><rect x="53.55" y="6.42" width="5.37" height="64.75" transform="translate(17.36 94.98) rotate(-89.92)" style="fill:#0e2443;mix-blend-mode:multiply"/><path d="M43.58,28.67A3.58,3.58,0,1,1,40,25.08,3.57,3.57,0,0,1,43.58,28.67Z" style="fill:#cfe1ff"/><path d="M43.06,32.65a5,5,0,1,1-6.11-8,5,5,0,0,1,6.11,8ZM38.69,27a2.14,2.14,0,0,0-.84,1.7A2.15,2.15,0,0,0,40,30.81a2.18,2.18,0,0,0,2.15-2.14,2.14,2.14,0,0,0-.63-1.52A2.16,2.16,0,0,0,38.69,27Z" style="fill:#fff"/><path d="M59.83,28.69a3.58,3.58,0,1,1-3.57-3.59A3.58,3.58,0,0,1,59.83,28.69Z" style="fill:#cfe1ff"/><path d="M59.31,32.67a4.93,4.93,0,0,1-3.06,1,5,5,0,0,1-3-9,5,5,0,0,1,3.06-1,5,5,0,0,1,3.05,9ZM55,27a2.12,2.12,0,0,0-.85,1.7,2.17,2.17,0,0,0,2.15,2.16,2.19,2.19,0,0,0,2.15-2.15,2.15,2.15,0,0,0-2.15-2.15A2.1,2.1,0,0,0,55,27Z" style="fill:#fff"/><path d="M76.09,28.72a3.59,3.59,0,1,1-3.58-3.59A3.58,3.58,0,0,1,76.09,28.72Z" style="fill:#cfe1ff"/><path d="M75.56,32.69A5,5,0,0,1,69,32.25a5,5,0,0,1,.5-7.52,5,5,0,0,1,6.11,8ZM71.2,27a2.12,2.12,0,0,0-.84,1.71A2.05,2.05,0,0,0,71,30.22a2.14,2.14,0,0,0,1.51.64,2.19,2.19,0,0,0,2.15-2.15,2.15,2.15,0,0,0-2.15-2.15A2.19,2.19,0,0,0,71.2,27Z" style="fill:#fff"/><path d="M42.44,27A2.45,2.45,0,0,1,40,29.46h0A2.43,2.43,0,0,1,37.57,27V20.09A2.45,2.45,0,0,1,40,17.66h0a2.44,2.44,0,0,1,2.44,2.44Z" style="fill:#80b1ff"/><path d="M58.69,27.05a2.43,2.43,0,0,1-2.44,2.43h0A2.43,2.43,0,0,1,53.82,27V20.12a2.43,2.43,0,0,1,2.43-2.44h0a2.44,2.44,0,0,1,2.44,2.44Z" style="fill:#80b1ff"/><path d="M74.94,27.07A2.43,2.43,0,0,1,72.5,29.5h0a2.43,2.43,0,0,1-2.43-2.43V20.14a2.44,2.44,0,0,1,2.44-2.44h0A2.45,2.45,0,0,1,75,20.14Z" style="fill:#80b1ff"/><path d="M32.54,75.74c3-2.51,5.42-4.6,7.2-6.28a29,29,0,0,0,4.47-5.25A9.72,9.72,0,0,0,46,58.85a5.71,5.71,0,0,0-1.13-3.77,4.25,4.25,0,0,0-3.48-1.36,4.37,4.37,0,0,0-3.62,1.57,6.85,6.85,0,0,0-1.32,4.31h-6.4C30.17,55.83,31.3,53,33.41,51a11.5,11.5,0,0,1,8.08-2.91c3.57,0,6.32,1,8.23,2.84a10.08,10.08,0,0,1,2.87,7.51,13.63,13.63,0,0,1-2,7,27.71,27.71,0,0,1-4.52,5.81q-2.55,2.47-6.64,6H53.35v5.46H30.1v-4.9Z" style="fill:#0e2443"/><path d="M73.65,54.47a4.92,4.92,0,0,0-3.31-1,5.14,5.14,0,0,0-4.78,2.61c-1,1.74-1.55,4.58-1.58,8.5a7.58,7.58,0,0,1,3.3-2.94A10.49,10.49,0,0,1,72,60.59a10.91,10.91,0,0,1,5.42,1.32,9.12,9.12,0,0,1,3.67,3.83,12.9,12.9,0,0,1,1.32,6.05A12.75,12.75,0,0,1,81,77.74a9.52,9.52,0,0,1-3.93,4.07A12.26,12.26,0,0,1,71,83.27c-3.27,0-5.83-.72-7.7-2.16a11.26,11.26,0,0,1-3.9-6,35.36,35.36,0,0,1-1.11-9.58q0-8.61,3-13t9.36-4.4c3.3,0,5.85.89,7.67,2.68a10.7,10.7,0,0,1,3.16,6.68H75.28A5.48,5.48,0,0,0,73.65,54.47Zm-7.36,13a5.28,5.28,0,0,0-1.7,4.24,5.51,5.51,0,0,0,6,6,5.28,5.28,0,0,0,4-1.55,5.82,5.82,0,0,0,1.49-4.19,6.24,6.24,0,0,0-1.44-4.33A5.36,5.36,0,0,0,70.48,66,6.2,6.2,0,0,0,66.29,67.46Z" style="fill:#0e2443"/></g></svg>