<svg xmlns="http://www.w3.org/2000/svg" xmlns:xlink="http://www.w3.org/1999/xlink" viewBox="0 0 492.08 456.88"><defs><linearGradient id="a" x1="348.31" y1="319.37" x2="410.5" y2="378.4" gradientUnits="userSpaceOnUse"><stop offset="0" stop-color="#66c"/><stop offset="1" stop-color="#09f"/></linearGradient><linearGradient id="b" x1="161.93" y1="-2.59" x2="225.01" y2="101.78" xlink:href="#a"/><linearGradient id="c" x1="144.7" y1="399.24" x2="218.15" y2="399.24" gradientUnits="userSpaceOnUse"><stop offset="0" stop-color="#66c"/><stop offset="1" stop-color="#de5f4f"/></linearGradient><linearGradient id="d" y1="201.4" x2="54.83" y2="201.4" gradientUnits="userSpaceOnUse"><stop offset="0" stop-color="#09f"/><stop offset="1" stop-color="#66c"/></linearGradient><linearGradient id="e" x1="73.69" y1="231.8" x2="9.14" y2="226.03" gradientTransform="translate(30.29 -32.19) rotate(7.89)" gradientUnits="userSpaceOnUse"><stop offset="0" stop-color="#66c"/><stop offset="1" stop-color="#09f" stop-opacity="0"/></linearGradient><linearGradient id="f" x1="158.43" y1="90.43" x2="150.56" y2="47.93" gradientTransform="translate(30.29 -32.19) rotate(7.89)" gradientUnits="userSpaceOnUse"><stop offset="0" stop-color="#607ec9"/><stop offset="1" stop-color="#66c" stop-opacity="0"/></linearGradient><linearGradient id="g" x1="372.75" y1="142.01" x2="447.79" y2="76.4" gradientTransform="translate(30.29 -32.19) rotate(7.89)" gradientUnits="userSpaceOnUse"><stop offset="0" stop-color="#607ec9"/><stop offset="1" stop-color="#00acee" stop-opacity="0"/></linearGradient><linearGradient id="h" x1="11.75" y1="254.39" x2="488.09" y2="254.39" gradientUnits="userSpaceOnUse"><stop offset="0" stop-color="#607ec9"/><stop offset="1" stop-color="#00acee"/></linearGradient><linearGradient id="i" x1="320.07" y1="447.68" x2="337.5" y2="447.68" gradientUnits="userSpaceOnUse"><stop offset="0" stop-color="#00acee"/><stop offset="1" stop-color="#607ec9"/></linearGradient><linearGradient id="j" x1="461.33" y1="278.43" x2="492.08" y2="278.43" xlink:href="#d"/><linearGradient id="k" x1="1.48" y1="121.79" x2="15.33" y2="144.7" xlink:href="#a"/><linearGradient id="l" x1="294.26" y1="1.25" x2="306.12" y2="20.88" xlink:href="#d"/><linearGradient id="m" x1="68.33" y1="433.07" x2="110.36" y2="433.07" xlink:href="#h"/><linearGradient id="n" x1="48.42" y1="412.65" x2="84.69" y2="412.65" xlink:href="#a"/></defs><title>mensaje_sin_promociones</title><g style="isolation:isolate"><polygon points="270.94 420.18 435.24 360.75 450.98 242.57 270.94 420.18" style="fill:url(#a)"/><path d="M37.45,274.51c0,3.15-10,91.32-10,91.32l167.5,20.88Z" style="fill:#66c"/><polygon points="178.01 12.12 98.33 81.39 318.1 66.58 178.01 12.12" style="fill:url(#b)"/><polygon points="427.89 74.04 480.37 116.93 441.15 182.74 427.89 74.04" style="fill:#09f"/><path d="M144.7,360l9.18,78.48s68.85-23.17,64-23.83S144.7,360,144.7,360Z" style="fill:url(#c)"/><polygon points="35.04 253.68 0 215.97 54.83 149.13 35.04 253.68" style="fill:url(#d)"/><polygon points="75.8 66.58 105.98 32.3 272.44 61.94 75.8 66.58" style="fill:#66c"/><polygon points="347.81 77.68 442.96 47.42 461.33 205.46 347.81 77.68" style="fill:#66c"/><polygon points="35.04 253.68 0 215.97 54.83 149.13 35.04 253.68" style="mix-blend-mode:multiply;fill:url(#e)"/><polygon points="75.8 66.58 105.98 32.3 272.44 61.94 75.8 66.58" style="mix-blend-mode:multiply;fill:url(#f)"/><polygon points="347.81 79.63 442.96 49.37 461.33 207.41 347.81 79.63" style="mix-blend-mode:multiply;fill:url(#g)"/><polygon points="66 65.6 341.78 51.9 488.09 224.27 252.55 456.88 11.75 296.5 66 65.6" style="fill:url(#h)"/><polygon points="320.07 438.48 323.08 456.88 337.5 447.68 320.07 438.48" style="fill:url(#i)"/><polygon points="461.33 280.37 488.09 291.27 492.08 265.59 461.33 280.37" style="fill:url(#j)"/><polygon points="27.41 142.02 11.75 120.95 0 142.02 27.41 142.02" style="fill:url(#k)"/><path d="M293.77,32.29c0,.47,10.16-32.29,10.16-32.29l16.15,12.12Z" style="fill:url(#l)"/><polygon points="110.36 409.59 89.4 456.54 68.33 438.95 110.36 409.59" style="fill:url(#m)"/><polygon points="84.69 404.12 54.44 421.19 48.42 405.53 84.69 404.12" style="fill:url(#n)"/><path d="M87.79,175.78V172h20v3.79Zm8,24.6V174.31h4v26.07Z" style="fill:#fff"/><path d="M116.18,200.67a8.08,8.08,0,0,1-6.17-2.31,9.09,9.09,0,0,1-2.19-6.51v-3.3a8.93,8.93,0,0,1,2.19-6.44,9.46,9.46,0,0,1,12.34,0,8.92,8.92,0,0,1,2.18,6.44v3.36a9,9,0,0,1-2.18,6.47A8.13,8.13,0,0,1,116.18,200.67Zm0-3.78a4.07,4.07,0,0,0,3.23-1.31,5.41,5.41,0,0,0,1.14-3.67v-3.36a5.32,5.32,0,0,0-1.14-3.65,4.68,4.68,0,0,0-6.45,0,5.28,5.28,0,0,0-1.16,3.65v3.36a5.37,5.37,0,0,0,1.16,3.67A4.06,4.06,0,0,0,116.18,196.89Z" style="fill:#fff"/><path d="M136.62,200.73a6.39,6.39,0,0,1-5.18-2.16,9.1,9.1,0,0,1-1.83-6.08V188a9.32,9.32,0,0,1,1.79-6.1,6.15,6.15,0,0,1,5-2.16,6.05,6.05,0,0,1,3.29.94,6.86,6.86,0,0,1,2.41,2.64l-.41,4.13a4.83,4.83,0,0,0-.47-2.2,3.23,3.23,0,0,0-1.36-1.4,4.48,4.48,0,0,0-2.16-.48,3.85,3.85,0,0,0-3,1.23,5.09,5.09,0,0,0-1.09,3.46v4.41a4.93,4.93,0,0,0,1.09,3.41,3.9,3.9,0,0,0,3,1.2,4.37,4.37,0,0,0,2.16-.5,3.3,3.3,0,0,0,1.36-1.43,5,5,0,0,0,.47-2.25l.27,4.28a6,6,0,0,1-1.88,2.45A5.41,5.41,0,0,1,136.62,200.73Zm5.1-.35V172h4v28.39Z" style="fill:#fff"/><path d="M158.23,200.67c-2.48,0-4.35-.51-5.59-1.54a5.78,5.78,0,0,1-1.86-4.72,5.7,5.7,0,0,1,1.7-4.52,7.59,7.59,0,0,1,5.13-1.5h5.76l.27,3.2h-6a3.4,3.4,0,0,0-2.32.7,2.7,2.7,0,0,0-.79,2.12,2.62,2.62,0,0,0,1,2.28,5.27,5.27,0,0,0,3.1.74,8.91,8.91,0,0,0,3.4-.49,1.59,1.59,0,0,0,1.13-1.52l.41,2.85a4.53,4.53,0,0,1-1.3,1.35,5.94,5.94,0,0,1-1.79.79A8.82,8.82,0,0,1,158.23,200.67Zm5-.29V187.53a4.26,4.26,0,0,0-1.06-3.09,4,4,0,0,0-3-1.1,7.89,7.89,0,0,0-2.35.36,7,7,0,0,0-2.08,1l-2.91-2a7.71,7.71,0,0,1,3-2.16,11,11,0,0,1,4.19-.77,8.27,8.27,0,0,1,5.89,2,7.27,7.27,0,0,1,2.09,5.57v13Z" style="fill:#fff"/><path d="M179.42,194.58l5-14.47h4.16l-7.62,20.27h-3l-7.62-20.27h4.16Z" style="fill:#fff"/><path d="M192.44,176v-4h4v4Zm0,24.41V180.11h4v20.27Z" style="fill:#fff"/><path d="M209,200.67q-3.74,0-5.59-1.54a5.76,5.76,0,0,1-1.87-4.72,5.67,5.67,0,0,1,1.71-4.52,7.59,7.59,0,0,1,5.13-1.5h5.76l.27,3.2h-6a3.43,3.43,0,0,0-2.33.7,2.69,2.69,0,0,0-.78,2.12,2.62,2.62,0,0,0,1,2.28,5.27,5.27,0,0,0,3.1.74,9,9,0,0,0,3.4-.49,1.6,1.6,0,0,0,1.13-1.52l.41,2.85a4.56,4.56,0,0,1-1.31,1.35,5.88,5.88,0,0,1-1.78.79A8.88,8.88,0,0,1,209,200.67Zm5-.29V187.53a4.26,4.26,0,0,0-1.06-3.09,4,4,0,0,0-3-1.1,7.89,7.89,0,0,0-2.35.36,6.88,6.88,0,0,0-2.08,1l-2.91-2a7.74,7.74,0,0,1,3-2.16,11.08,11.08,0,0,1,4.19-.77,8.28,8.28,0,0,1,5.9,2,7.31,7.31,0,0,1,2.09,5.57v13Z" style="fill:#fff"/><path d="M234.5,200.38V180.11h4v20.27Zm12.3,0V188.1a4.68,4.68,0,0,0-1.1-3.32,4.85,4.85,0,0,0-6.15-.14,3.87,3.87,0,0,0-1.07,2.91l-.41-3.9a7.19,7.19,0,0,1,2.45-2.83,5.93,5.93,0,0,1,3.35-1A6.3,6.3,0,0,1,249,182a9.27,9.27,0,0,1,1.8,6.1v12.3Z" style="fill:#fff"/><path d="M264.61,200.67a8.08,8.08,0,0,1-6.17-2.31,9.09,9.09,0,0,1-2.19-6.51v-3.3a8.93,8.93,0,0,1,2.19-6.44,9.46,9.46,0,0,1,12.34,0,8.92,8.92,0,0,1,2.18,6.44v3.36a9,9,0,0,1-2.18,6.47A8.13,8.13,0,0,1,264.61,200.67Zm0-3.78a4.07,4.07,0,0,0,3.23-1.31,5.41,5.41,0,0,0,1.14-3.67v-3.36a5.32,5.32,0,0,0-1.14-3.65,4.68,4.68,0,0,0-6.45,0,5.28,5.28,0,0,0-1.16,3.65v3.36a5.37,5.37,0,0,0,1.16,3.67A4.06,4.06,0,0,0,264.61,196.89Z" style="fill:#fff"/><path d="M287.8,183.71v-3.6h9.14v3.6Zm6.84,16.77a4.39,4.39,0,0,1-3.63-1.39,6.23,6.23,0,0,1-1.12-4V174.22h4v20.93a1.87,1.87,0,0,0,.29,1.13,1,1,0,0,0,.86.41h1.91v3.79Z" style="fill:#fff"/><path d="M302.41,176v-4h4v4Zm0,24.41V180.11h4v20.27Z" style="fill:#fff"/><path d="M320.74,200.67a8.77,8.77,0,0,1-6.56-2.36q-2.32-2.35-2.32-6.72v-2.28q0-4.53,2.23-7a8.07,8.07,0,0,1,6.3-2.48,7,7,0,0,1,5.93,2.81q2.1,2.82,2.1,7.89v1.33H314.75v-3.2h9.88a6.91,6.91,0,0,0-1.28-3.85,3.61,3.61,0,0,0-3-1.39,4.3,4.3,0,0,0-3.49,1.49,6.3,6.3,0,0,0-1.25,4.2v2.57a5.27,5.27,0,0,0,1.33,3.87,5.08,5.08,0,0,0,3.76,1.35,6.36,6.36,0,0,0,2.4-.49,6.82,6.82,0,0,0,2.13-1.37l2.62,2.62a10.92,10.92,0,0,1-3.38,2.23A9.59,9.59,0,0,1,320.74,200.67Z" style="fill:#fff"/><path d="M333.88,200.38V180.11h4v20.27Zm12.3,0V188.1a4.64,4.64,0,0,0-1.1-3.32,4.85,4.85,0,0,0-6.15-.14,3.87,3.87,0,0,0-1.06,2.91l-.41-3.9a7.11,7.11,0,0,1,2.45-2.83,5.9,5.9,0,0,1,3.34-1,6.29,6.29,0,0,1,5.11,2.16,9.27,9.27,0,0,1,1.81,6.1v12.3Z" style="fill:#fff"/><path d="M364.52,200.67a8.74,8.74,0,0,1-6.56-2.36,9.16,9.16,0,0,1-2.33-6.72v-2.28q0-4.53,2.24-7a8.06,8.06,0,0,1,6.3-2.48,7,7,0,0,1,5.92,2.81q2.1,2.82,2.1,7.89v1.33H358.52v-3.2h9.88a6.75,6.75,0,0,0-1.28-3.85,3.59,3.59,0,0,0-2.95-1.39,4.32,4.32,0,0,0-3.5,1.49,6.36,6.36,0,0,0-1.25,4.2v2.57a5.27,5.27,0,0,0,1.34,3.87,5,5,0,0,0,3.76,1.35,6.44,6.44,0,0,0,2.4-.49,7.06,7.06,0,0,0,2.13-1.37l2.61,2.62a10.88,10.88,0,0,1-3.37,2.23A9.59,9.59,0,0,1,364.52,200.67Z" style="fill:#fff"/><path d="M118.23,254V225.47h4V254Zm9.08-7.95a5.9,5.9,0,0,1-3.3-.91,5.27,5.27,0,0,1-2.07-2.56l.27-4.24a4.93,4.93,0,0,0,.47,2.23A3.17,3.17,0,0,0,124,242a4.35,4.35,0,0,0,2.15.49,3.9,3.9,0,0,0,3.06-1.2,4.89,4.89,0,0,0,1.08-3.39v-4.39a5.07,5.07,0,0,0-1.08-3.46,3.86,3.86,0,0,0-3.06-1.23,4.58,4.58,0,0,0-2.15.47,3.11,3.11,0,0,0-1.36,1.37,4.68,4.68,0,0,0-.47,2.18l-.41-3.9a6.94,6.94,0,0,1,2.4-2.74,5.88,5.88,0,0,1,3.3-1,6.15,6.15,0,0,1,5,2.16,9.38,9.38,0,0,1,1.78,6.1v4.41a9,9,0,0,1-1.84,6A6.41,6.41,0,0,1,127.31,246Z" style="fill:#fff"/><path d="M140,245.74V225.47h4v20.27Zm11.15-15.46a3.35,3.35,0,0,0-1.33-1A4.81,4.81,0,0,0,148,229a4,4,0,0,0-2.94,1,3.92,3.92,0,0,0-1,2.9l-.41-3.9a7.43,7.43,0,0,1,2.41-2.82,5.8,5.8,0,0,1,3.29-1,7.34,7.34,0,0,1,2.51.4,5.69,5.69,0,0,1,2,1.18Z" style="fill:#fff"/><path d="M164.42,246a8.1,8.1,0,0,1-6.17-2.31,9.13,9.13,0,0,1-2.18-6.51v-3.3a9,9,0,0,1,2.18-6.45,9.49,9.49,0,0,1,12.34,0,9,9,0,0,1,2.19,6.45v3.36a9,9,0,0,1-2.19,6.47A8.1,8.1,0,0,1,164.42,246Zm0-3.79a4.08,4.08,0,0,0,3.24-1.3,5.43,5.43,0,0,0,1.14-3.67v-3.36a5.32,5.32,0,0,0-1.14-3.65,4.69,4.69,0,0,0-6.46,0,5.32,5.32,0,0,0-1.15,3.65v3.36a5.43,5.43,0,0,0,1.15,3.67A4.07,4.07,0,0,0,164.42,242.24Z" style="fill:#fff"/><path d="M178.44,245.74V225.47h4v20.27Zm12.11,0V233.46a4.81,4.81,0,0,0-1.05-3.32,3.83,3.83,0,0,0-3-1.17,4.16,4.16,0,0,0-3,1,3.87,3.87,0,0,0-1.06,2.91L182,229a7.11,7.11,0,0,1,2.45-2.83,5.91,5.91,0,0,1,3.35-1,6.05,6.05,0,0,1,5,2.16,9.43,9.43,0,0,1,1.75,6.1v12.3Zm12.1,0V233.46a4.64,4.64,0,0,0-1.1-3.32,4.09,4.09,0,0,0-3.13-1.17,3.62,3.62,0,0,0-2.87,1.13,4.61,4.61,0,0,0-1,3.2l-.8-3.9a7.86,7.86,0,0,1,2.54-3.13,5.87,5.87,0,0,1,3.46-1.09,6.27,6.27,0,0,1,5.1,2.16,9.21,9.21,0,0,1,1.81,6.1v12.3Z" style="fill:#fff"/><path d="M220.46,246a8.1,8.1,0,0,1-6.17-2.31,9.09,9.09,0,0,1-2.19-6.51v-3.3a9,9,0,0,1,2.19-6.45,9.49,9.49,0,0,1,12.34,0,9,9,0,0,1,2.19,6.45v3.36a9,9,0,0,1-2.19,6.47A8.11,8.11,0,0,1,220.46,246Zm0-3.79a4.06,4.06,0,0,0,3.23-1.3,5.43,5.43,0,0,0,1.15-3.67v-3.36a5.32,5.32,0,0,0-1.15-3.65,4.68,4.68,0,0,0-6.45,0,5.27,5.27,0,0,0-1.15,3.65v3.36a5.38,5.38,0,0,0,1.15,3.67A4.07,4.07,0,0,0,220.46,242.24Z" style="fill:#fff"/><path d="M242.66,246a8,8,0,0,1-8.77-8.8v-3.34a8.68,8.68,0,0,1,2.3-6.44,8.82,8.82,0,0,1,6.47-2.27,10.61,10.61,0,0,1,4.3.84,7.28,7.28,0,0,1,3,2.4L247.13,231a5.88,5.88,0,0,0-2-1.51,5.76,5.76,0,0,0-2.42-.52,4.76,4.76,0,0,0-3.57,1.29,4.94,4.94,0,0,0-1.27,3.63v3.34a5.11,5.11,0,0,0,1.27,3.71,4.73,4.73,0,0,0,3.57,1.3,5.37,5.37,0,0,0,2.42-.56,5.89,5.89,0,0,0,2-1.6l2.87,2.77A7.31,7.31,0,0,1,247,245.2,10.59,10.59,0,0,1,242.66,246Z" style="fill:#fff"/><path d="M254.4,221.33v-4h4v4Zm0,24.41V225.47h4v20.27Z" style="fill:#fff"/><path d="M272.2,246a8.1,8.1,0,0,1-6.17-2.31,9.13,9.13,0,0,1-2.18-6.51v-3.3a9,9,0,0,1,2.18-6.45,9.49,9.49,0,0,1,12.34,0,9,9,0,0,1,2.19,6.45v3.36a9,9,0,0,1-2.19,6.47A8.1,8.1,0,0,1,272.2,246Zm0-3.79a4,4,0,0,0,3.23-1.3,5.38,5.38,0,0,0,1.15-3.67v-3.36a5.27,5.27,0,0,0-1.15-3.65,4.68,4.68,0,0,0-6.45,0,5.27,5.27,0,0,0-1.15,3.65v3.36a5.38,5.38,0,0,0,1.15,3.67A4.07,4.07,0,0,0,272.2,242.24Z" style="fill:#fff"/><path d="M286.22,245.74V225.47h4v20.27Zm12.3,0V233.46a4.64,4.64,0,0,0-1.1-3.32,4.85,4.85,0,0,0-6.15-.14,3.87,3.87,0,0,0-1.06,2.91l-.41-3.9a7.11,7.11,0,0,1,2.45-2.83,5.88,5.88,0,0,1,3.34-1,6.29,6.29,0,0,1,5.11,2.16,9.27,9.27,0,0,1,1.81,6.1v12.3Z" style="fill:#fff"/><path d="M316.86,246a8.78,8.78,0,0,1-6.56-2.36A9.16,9.16,0,0,1,308,237v-2.28q0-4.53,2.24-7a8,8,0,0,1,6.29-2.48,7,7,0,0,1,5.93,2.81q2.1,2.82,2.1,7.89v1.33H310.86V234h9.88a6.73,6.73,0,0,0-1.28-3.85,3.57,3.57,0,0,0-3-1.39,4.32,4.32,0,0,0-3.49,1.49,6.33,6.33,0,0,0-1.25,4.19V237a5.27,5.27,0,0,0,1.34,3.87,5,5,0,0,0,3.76,1.34,6.42,6.42,0,0,0,2.4-.48,7.26,7.26,0,0,0,2.13-1.37L324,243a11.05,11.05,0,0,1-3.37,2.23A9.59,9.59,0,0,1,316.86,246Z" style="fill:#fff"/><path d="M337.16,246a14.33,14.33,0,0,1-4.89-.79,11.81,11.81,0,0,1-3.93-2.37L330.7,240a13.75,13.75,0,0,0,3.27,1.87,8.71,8.71,0,0,0,3.19.63,6.84,6.84,0,0,0,3.55-.73,2.43,2.43,0,0,0,1.18-2.2,1.72,1.72,0,0,0-.79-1.6,5.33,5.33,0,0,0-2.07-.62c-.86-.09-1.77-.17-2.75-.24-.82-.06-1.63-.17-2.44-.3a7.41,7.41,0,0,1-2.2-.74,3.89,3.89,0,0,1-1.59-1.6,5.69,5.69,0,0,1-.6-2.83,5.87,5.87,0,0,1,2-4.82q2-1.6,5.88-1.6a14.64,14.64,0,0,1,4.43.64,12.92,12.92,0,0,1,3.85,2l-2.4,2.91a13.38,13.38,0,0,0-3-1.47,9.27,9.27,0,0,0-2.88-.49,5.39,5.39,0,0,0-3.05.7,2.35,2.35,0,0,0-1,2.07,1.38,1.38,0,0,0,.7,1.32,4.72,4.72,0,0,0,1.86.52c.76.08,1.59.15,2.48.22a25.34,25.34,0,0,1,2.56.28,7.62,7.62,0,0,1,2.4.79,4.43,4.43,0,0,1,1.75,1.74,6.29,6.29,0,0,1,.67,3.14,5.77,5.77,0,0,1-2.12,4.88Q341.42,246,337.16,246Z" style="fill:#fff"/><path d="M183.19,291.39c-2.49,0-4.35-.51-5.6-1.54a5.79,5.79,0,0,1-1.86-4.73,5.7,5.7,0,0,1,1.71-4.52,7.63,7.63,0,0,1,5.12-1.49h5.76l.28,3.2h-6a3.35,3.35,0,0,0-2.32.7,2.67,2.67,0,0,0-.78,2.11,2.63,2.63,0,0,0,1,2.29,5.38,5.38,0,0,0,3.11.74,8.85,8.85,0,0,0,3.39-.49,1.6,1.6,0,0,0,1.14-1.52l.41,2.85a4.69,4.69,0,0,1-1.31,1.35,5.94,5.94,0,0,1-1.79.79A9.26,9.26,0,0,1,183.19,291.39Zm5-.29V278.25a4.25,4.25,0,0,0-1.07-3.09,4,4,0,0,0-3-1.11,8,8,0,0,0-2.36.36,6.9,6.9,0,0,0-2.08,1l-2.9-2a7.41,7.41,0,0,1,3-2.16,11,11,0,0,1,4.19-.77,8.29,8.29,0,0,1,5.9,2,7.3,7.3,0,0,1,2.09,5.56v13Z" style="fill:#fff"/><path d="M206.17,291.39a8.74,8.74,0,0,1-6.47-2.3,8.83,8.83,0,0,1-2.3-6.5v-3.34a8.67,8.67,0,0,1,2.3-6.44,8.81,8.81,0,0,1,6.47-2.27,10.53,10.53,0,0,1,4.29.84,7.31,7.31,0,0,1,3,2.4l-2.87,2.58a5.73,5.73,0,0,0-4.41-2,4.84,4.84,0,0,0-3.58,1.28,5,5,0,0,0-1.26,3.64v3.34a5.15,5.15,0,0,0,1.26,3.71,4.77,4.77,0,0,0,3.58,1.3,5.54,5.54,0,0,0,2.42-.56,5.89,5.89,0,0,0,2-1.6l2.87,2.77a7.34,7.34,0,0,1-3.06,2.35A10.75,10.75,0,0,1,206.17,291.39Z" style="fill:#fff"/><path d="M216.34,274.42v-3.59h9.14v3.59Zm6.84,16.78a4.42,4.42,0,0,1-3.63-1.39,6.17,6.17,0,0,1-1.12-4v-20.9h4v20.94a1.89,1.89,0,0,0,.3,1.13,1,1,0,0,0,.86.41h1.91v3.79Z" style="fill:#fff"/><path d="M231,266.69v-4h4v4Zm0,24.41V270.83h4V291.1Z" style="fill:#fff"/><path d="M248,285.3l5-14.47h4.16l-7.61,20.27h-3l-7.62-20.27H243Z" style="fill:#fff"/><path d="M267.46,291.39c-2.49,0-4.35-.51-5.6-1.54a5.79,5.79,0,0,1-1.86-4.73,5.7,5.7,0,0,1,1.71-4.52,7.61,7.61,0,0,1,5.12-1.49h5.76l.28,3.2h-6a3.35,3.35,0,0,0-2.32.7,2.67,2.67,0,0,0-.78,2.11,2.63,2.63,0,0,0,1,2.29,5.38,5.38,0,0,0,3.11.74,9,9,0,0,0,3.4-.49,1.6,1.6,0,0,0,1.13-1.52l.41,2.85a4.69,4.69,0,0,1-1.31,1.35,5.94,5.94,0,0,1-1.79.79A9.26,9.26,0,0,1,267.46,291.39Zm5-.29V278.25a4.25,4.25,0,0,0-1.07-3.09,4,4,0,0,0-3-1.11,8,8,0,0,0-2.36.36,6.9,6.9,0,0,0-2.08,1l-2.9-2a7.48,7.48,0,0,1,3-2.16,11,11,0,0,1,4.19-.77,8.29,8.29,0,0,1,5.9,2,7.3,7.3,0,0,1,2.09,5.56v13Z" style="fill:#fff"/><path d="M289.42,291.39a14.33,14.33,0,0,1-4.89-.79,11.81,11.81,0,0,1-3.93-2.37l2.36-2.91a13.75,13.75,0,0,0,3.27,1.87,8.75,8.75,0,0,0,3.19.63,6.94,6.94,0,0,0,3.55-.73,2.41,2.41,0,0,0,1.18-2.2,1.69,1.69,0,0,0-.79-1.6,5.33,5.33,0,0,0-2.07-.62c-.85-.09-1.77-.18-2.74-.24s-1.64-.17-2.44-.3a7.12,7.12,0,0,1-2.21-.75,3.87,3.87,0,0,1-1.59-1.59,5.69,5.69,0,0,1-.6-2.83,5.85,5.85,0,0,1,2-4.82q2-1.61,5.88-1.6a14.64,14.64,0,0,1,4.43.64,13.13,13.13,0,0,1,3.85,2l-2.4,2.91a13.76,13.76,0,0,0-3-1.46,9,9,0,0,0-2.88-.49,5.42,5.42,0,0,0-3,.69,2.36,2.36,0,0,0-1,2.08,1.39,1.39,0,0,0,.7,1.32,4.72,4.72,0,0,0,1.86.52c.77.08,1.59.15,2.48.21s1.7.15,2.56.29a7.37,7.37,0,0,1,2.4.79,4.37,4.37,0,0,1,1.75,1.74,6.18,6.18,0,0,1,.67,3.14,5.77,5.77,0,0,1-2.12,4.88Q293.68,291.39,289.42,291.39Z" style="fill:#fff"/></g></svg>